<svg width="107" height="107" viewBox="0 0 107 107" fill="none" xmlns="http://www.w3.org/2000/svg">
<path d="M53.3333 106.667C46.8444 105.867 40.4 104.111 34 101.4C27.6 98.6889 21.8889 94.8 16.8667 89.7333C11.8444 84.6667 7.77778 78.2667 4.66667 70.5333C1.55556 62.8 0 53.5111 0 42.6667V37.3333H5.33333C9.86667 37.3333 14.5333 37.9111 19.3333 39.0667C24.1333 40.2222 28.6222 41.9556 32.8 44.2667C33.8667 36.6222 36.2889 28.7778 40.0667 20.7333C43.8444 12.6889 48.2667 5.77778 53.3333 0C58.4 5.77778 62.8222 12.6889 66.6 20.7333C70.3778 28.7778 72.8 36.6222 73.8667 44.2667C78.0444 41.9556 82.5333 40.2222 87.3333 39.0667C92.1333 37.9111 96.8 37.3333 101.333 37.3333H106.667V42.6667C106.667 53.5111 105.111 62.8 102 70.5333C98.8889 78.2667 94.8222 84.6667 89.8 89.7333C84.7778 94.8 79.0889 98.6889 72.7333 101.4C66.3778 104.111 59.9111 105.867 53.3333 106.667V106.667M53.0667 95.7333C52.0889 80.9778 47.7111 69.8222 39.9333 62.2667C32.1556 54.7111 22.4889 50.0444 10.9333 48.2667C11.9111 63.4667 16.4222 74.8 24.4667 82.2667C32.5111 89.7333 42.0444 94.2222 53.0667 95.7333V95.7333M53.3333 61.8667C54.6667 59.9111 56.2889 57.8889 58.2 55.8C60.1111 53.7111 61.9556 51.9111 63.7333 50.4C63.5556 45.3333 62.5556 40.0444 60.7333 34.5333C58.9111 29.0222 56.4444 23.6444 53.3333 18.4C50.2222 23.6444 47.7556 29.0222 45.9333 34.5333C44.1111 40.0444 43.1111 45.3333 42.9333 50.4C44.7111 51.9111 46.5778 53.7111 48.5333 55.8C50.4889 57.8889 52.0889 59.9111 53.3333 61.8667V61.8667M63.7333 93.3333C67.0222 92.2667 70.4444 90.7111 74 88.6667C77.5556 86.6222 80.8667 83.8444 83.9333 80.3333C87 76.8222 89.6222 72.4444 91.8 67.2C93.9778 61.9556 95.2889 55.6444 95.7333 48.2667C87.3778 49.5111 80.0444 52.2889 73.7333 56.6C67.4222 60.9111 62.5778 66.4 59.2 73.0667C60.2667 75.9111 61.1778 79.0222 61.9333 82.4C62.6889 85.7778 63.2889 89.4222 63.7333 93.3333V93.3333M53.3333 61.8667V61.8667V61.8667V61.8667V61.8667V61.8667V61.8667V61.8667V61.8667V61.8667M63.7333 93.3333V93.3333V93.3333V93.3333V93.3333V93.3333V93.3333V93.3333V93.3333V93.3333M53.0667 95.7333V95.7333V95.7333V95.7333V95.7333V95.7333M59.2 73.0667V73.0667V73.0667V73.0667V73.0667V73.0667V73.0667V73.0667V73.0667V73.0667V73.0667V73.0667V73.0667M53.3333 106.667V106.667V106.667V106.667V106.667V106.667V106.667V106.667V106.667V106.667V106.667V106.667V106.667V106.667V106.667V106.667V106.667V106.667V106.667V106.667V106.667" fill="#2C5926"/>
</svg>
